<?xml version="1.0" standalone="no"?>
<!DOCTYPE svg PUBLIC "-//W3C//DTD SVG 20010904//EN"
 "http://www.w3.org/TR/2001/REC-SVG-20010904/DTD/svg10.dtd">
<svg version="1.0" xmlns="http://www.w3.org/2000/svg"
 width="260.000000pt" height="260.000000pt" viewBox="0 0 260.000000 260.000000"
 preserveAspectRatio="xMidYMid meet">
<metadata>
Created by potrace 1.14, written by Peter Selinger 2001-2017
</metadata>
<g transform="translate(0.000000,260.000000) scale(0.100000,-0.100000)"
fill="#000000" stroke="none">
<path d="M211 2477 c-48 -24 -82 -64 -100 -116 -14 -44 -16 -2069 -1 -2121 11
-39 50 -86 95 -116 29 -18 58 -19 1095 -19 l1065 0 36 22 c20 13 49 42 65 65
l29 41 0 1062 c0 924 -2 1066 -15 1091 -18 36 -46 64 -85 90 -29 18 -62 19
-1085 21 l-1055 3 -44 -23z"/>
</g>
</svg>
